<svg width="48" height="48" viewBox="0 -2 50 55" fill="none" xmlns="http://www.w3.org/2000/svg">
<path d="M39.6812 8.22149H35.4866V6.12417C35.4866 5.56793 35.2656 5.03447 34.8723 4.64114C34.479 4.24782 33.9455 4.02686 33.3893 4.02686C32.833 4.02686 32.2996 4.24782 31.9062 4.64114C31.5129 5.03447 31.292 5.56793 31.292 6.12417V8.22149H18.7081V6.12417C18.7081 5.56793 18.4871 5.03447 18.0938 4.64114C17.7005 4.24782 17.167 4.02686 16.6107 4.02686C16.0545 4.02686 15.521 4.24782 15.1277 4.64114C14.7344 5.03447 14.5134 5.56793 14.5134 6.12417V8.22149H10.3188C8.65007 8.22149 7.04969 8.88439 5.86972 10.0644C4.68976 11.2443 4.02686 12.8447 4.02686 14.5134V39.6812C4.02686 41.3499 4.68976 42.9503 5.86972 44.1303C7.04969 45.3103 8.65007 45.9732 10.3188 45.9732H39.6812C41.3499 45.9732 42.9503 45.3103 44.1303 44.1303C45.3103 42.9503 45.9732 41.3499 45.9732 39.6812V14.5134C45.9732 12.8447 45.3103 11.2443 44.1303 10.0644C42.9503 8.88439 41.3499 8.22149 39.6812 8.22149ZM41.7785 39.6812C41.7785 40.2375 41.5576 40.7709 41.1642 41.1642C40.7709 41.5576 40.2375 41.7785 39.6812 41.7785H10.3188C9.76256 41.7785 9.2291 41.5576 8.83578 41.1642C8.44245 40.7709 8.22149 40.2375 8.22149 39.6812V25H41.7785V39.6812ZM41.7785 20.8054H8.22149V14.5134C8.22149 13.9572 8.44245 13.4237 8.83578 13.0304C9.2291 12.6371 9.76256 12.4161 10.3188 12.4161H14.5134V14.5134C14.5134 15.0697 14.7344 15.6031 15.1277 15.9965C15.521 16.3898 16.0545 16.6107 16.6107 16.6107C17.167 16.6107 17.7005 16.3898 18.0938 15.9965C18.4871 15.6031 18.7081 15.0697 18.7081 14.5134V12.4161H31.292V14.5134C31.292 15.0697 31.5129 15.6031 31.9062 15.9965C32.2996 16.3898 32.833 16.6107 33.3893 16.6107C33.9455 16.6107 34.479 16.3898 34.8723 15.9965C35.2656 15.6031 35.4866 15.0697 35.4866 14.5134V12.4161H39.6812C40.2375 12.4161 40.7709 12.6371 41.1642 13.0304C41.5576 13.4237 41.7785 13.9572 41.7785 14.5134V20.8054Z" fill="#a69dff"/>
</svg>
