<svg width="59" height="80" viewBox="0 0 59 80" fill="none" xmlns="http://www.w3.org/2000/svg">
<path d="M29.5 80C45.355 80 58.2525 67.1025 58.2525 51.2475C58.2525 51.2362 58.2463 51.2275 58.2463 51.2175V35.0325C58.2463 35.0212 58.2525 35.0125 58.2525 35.0025C58.2525 15.7025 42.55 -1.52588e-05 23.25 -1.52588e-05C22.5587 -1.52588e-05 22 0.559985 22 1.24998C22 10.2037 14.7225 17.4862 5.7725 17.4987C5.76625 17.4987 5.76 17.495 5.75375 17.495C2.9975 17.495 0.754998 19.7362 0.753748 22.4925V22.4937V51.2175C0.753748 51.2287 0.747498 51.2375 0.747498 51.2475C0.747498 67.1025 13.645 80 29.5 80ZM5.735 19.9975C5.74 19.9975 5.745 20 5.75 20C15.6575 20 23.7725 12.2712 24.435 2.52998C41.8013 3.15623 55.7375 17.4637 55.7513 34.975C55.7513 34.985 55.7463 34.9925 55.7463 35.0012V51.2462C55.7463 51.255 55.7513 51.2625 55.7513 51.2712C55.7375 65.7362 43.9663 77.5 29.5 77.5C15.0337 77.5 3.2625 65.7362 3.24875 51.2725C3.24875 51.2637 3.25375 51.2562 3.25375 51.2475V22.495C3.25375 21.1225 4.36625 20.0075 5.735 19.9975Z" fill="white"/>
<path d="M29.5 74.9962C42.5962 74.9962 53.25 64.3425 53.25 51.2462C53.25 38.1512 42.5962 27.4975 29.5 27.4975C16.4037 27.4975 5.75 38.1512 5.75 51.2462C5.75 64.3425 16.4037 74.9962 29.5 74.9962ZM29.5 29.9975C41.2175 29.9975 50.75 39.5287 50.75 51.2462C50.75 62.9637 41.2175 72.4962 29.5 72.4962C17.7825 72.4962 8.25 62.9637 8.25 51.2462C8.25 39.53 17.7825 29.9975 29.5 29.9975Z" fill="white"/>
<path d="M15.7475 57.5C16.4387 57.5 16.9975 56.9412 16.9975 56.25V55.5175L18.6137 57.1337C18.8575 57.3775 19.1775 57.5 19.4975 57.5C19.8175 57.5 20.1375 57.3775 20.3812 57.1337C20.87 56.645 20.87 55.855 20.3812 55.3662L17.515 52.5L20.3812 49.6337C20.87 49.145 20.87 48.355 20.3812 47.8662C19.8925 47.3775 19.1025 47.3775 18.6137 47.8662L16.9975 49.4825V48.75C16.9975 48.0587 16.4387 47.5 15.7475 47.5C15.0562 47.5 14.4975 48.0587 14.4975 48.75V56.25C14.4975 56.9412 15.0562 57.5 15.7475 57.5Z" fill="white"/>
<path d="M25.7475 57.5C27.0787 57.5 28.3237 56.7838 28.9925 55.63C29.34 55.0325 29.1362 54.2688 28.54 53.9225C27.9462 53.5763 27.18 53.7762 26.8325 54.375C26.6075 54.7613 26.1925 55 25.7487 55C25.0587 55 24.4987 54.44 24.4987 53.75V51.25C24.4987 50.56 25.0587 50 25.7487 50C26.195 50 26.6112 50.24 26.8337 50.6287C27.1762 51.2275 27.94 51.4325 28.54 51.09C29.1387 50.7475 29.3462 49.9825 29.0012 49.3837C28.3337 48.2212 27.0875 47.5 25.7475 47.5C23.68 47.5 21.9975 49.1825 21.9975 51.25V53.75C21.9975 55.8175 23.68 57.5 25.7475 57.5Z" fill="white"/>
<path d="M30.8975 57.4075C31.0538 57.4712 31.215 57.5012 31.375 57.5012C31.8663 57.5012 32.3325 57.2112 32.5313 56.7287L33.2438 55.0012H35.745L36.4738 56.735C36.675 57.2137 37.1388 57.5 37.6263 57.5C37.7888 57.5 37.9525 57.4687 38.1113 57.4025C38.7475 57.135 39.0463 56.4012 38.7788 55.765L35.6238 48.265C35.61 48.2325 35.5825 48.2125 35.5663 48.1812C35.5075 48.0675 35.4425 47.955 35.35 47.8637C35.275 47.79 35.1825 47.7425 35.0938 47.6912C35.0425 47.6612 35.005 47.6162 34.9488 47.5937C34.9325 47.5875 34.9163 47.59 34.8988 47.5837C34.7613 47.5337 34.615 47.5025 34.465 47.5025C34.3663 47.5037 34.2738 47.5362 34.1788 47.56C34.1138 47.575 34.0488 47.5725 33.9863 47.5975C33.9263 47.6237 33.885 47.6712 33.83 47.7037C33.7463 47.755 33.6563 47.7987 33.5863 47.87C33.505 47.9525 33.4513 48.0537 33.395 48.155C33.3713 48.1975 33.3338 48.2275 33.3163 48.2737L30.22 55.775C29.9563 56.4125 30.26 57.1437 30.8975 57.4075ZM34.275 52.5012L34.4813 52.0012L34.6925 52.5012H34.275Z" fill="white"/>
<path d="M41.3763 57.4975H45.1263C45.8175 57.4975 46.3763 56.9387 46.3763 56.2475C46.3763 55.5562 45.8175 54.9975 45.1263 54.9975H42.6263V48.7475C42.6263 48.0562 42.0675 47.4975 41.3763 47.4975C40.685 47.4975 40.1263 48.0562 40.1263 48.7475V56.2475C40.1263 56.9387 40.685 57.4975 41.3763 57.4975Z" fill="white"/>
</svg>
