<svg width="81" height="80" viewBox="0 0 81 80" fill="none" xmlns="http://www.w3.org/2000/svg">
<path d="M75.0312 24.737H69.2895C69.715 23.772 69.9531 22.7064 69.9531 21.5858C69.9531 17.5872 66.9439 14.2783 63.0709 13.8052C62.7323 7.67421 56.4166 3.63265 50.685 5.97593C46.272 -1.98001 34.7369 -1.99626 30.3148 5.97593C24.583 3.63249 18.2673 7.67609 17.9289 13.8052C12.7491 14.438 9.58938 19.9269 11.7103 24.737H5.96875C2.95328 24.737 0.5 27.1903 0.5 30.2058C0.5 42.0376 4.60406 51.5458 11.987 58.9287C15.2595 62.2012 19.0091 64.823 23.0781 66.7316V74.5283C23.0781 77.5437 25.5314 79.997 28.5469 79.997H52.4531C55.4686 79.997 57.9219 77.5437 57.9219 74.5283V66.7316C61.9909 64.823 65.7405 62.2012 69.013 58.9287C76.367 51.5747 80.5 42.0783 80.5 30.2058C80.5 27.1903 78.0467 24.737 75.0312 24.737ZM18.8856 18.4347H20.5028C22.0491 18.4347 23.1759 16.9583 22.7611 15.4641C21.9922 12.6937 24.0905 9.99718 26.9128 9.99718C28.0083 9.99718 29.0528 10.4098 29.8541 11.1589C31.1627 12.3823 33.3097 11.7406 33.7322 9.99999C34.4923 6.87031 37.2753 4.68468 40.5 4.68468C43.7247 4.68468 46.5077 6.87031 47.2677 9.99999C47.6903 11.7408 49.8375 12.3822 51.1458 11.1589C54.2956 8.2139 59.4041 11.2658 58.2389 15.4641C57.8253 16.9541 58.9466 18.4347 60.4972 18.4347H62.1144C63.852 18.4347 65.2656 19.8483 65.2656 21.5858C65.2656 23.3234 63.852 24.737 62.1144 24.737H18.8856C17.148 24.737 15.7344 23.3234 15.7344 21.5858C15.7344 19.8483 17.148 18.4347 18.8856 18.4347ZM53.2344 74.5284C53.2344 74.9592 52.8839 75.3097 52.4531 75.3097H28.5469C28.1161 75.3097 27.7656 74.9592 27.7656 74.5284V68.5672C35.6658 71.0844 45.4603 71.0442 53.2344 68.5672V74.5284ZM41.2812 65.7281H39.7188C21.7839 65.7281 5.1875 51.6964 5.1875 30.2058C5.1875 29.775 5.53797 29.4245 5.96875 29.4245H75.0312C75.462 29.4245 75.8125 29.775 75.8125 30.2058C75.8125 51.6094 59.3009 65.7281 41.2812 65.7281Z" fill="white"/>
</svg>
