<svg width="37" height="45" viewBox="0 0 37 45" fill="none" xmlns="http://www.w3.org/2000/svg">
<path d="M18.5021 31.3472C17.1721 32.3594 14.4263 34.8627 14.4263 38.2734C14.4263 40.5251 16.2537 42.357 18.5 42.357C20.7463 42.357 22.5737 40.5251 22.5737 38.2734C22.5737 35.0433 19.8263 32.4224 18.5021 31.3472Z" fill="white"/>
<path d="M28.0477 7.8326C27.5537 7.27388 26.701 7.24004 26.163 7.74225L19.9593 13.5324V1.40657C19.9593 0.391517 18.7354 -0.366892 17.8189 0.187523C17.6454 0.292464 13.5226 2.81 9.35683 7.38181C4.29178 12.9407 0.842163 19.7091 0.842163 27.2997C0.842163 37.0599 8.76348 45.0004 18.5 45.0004C14.7998 45.0004 11.7896 41.9828 11.7896 38.2737C11.7896 32.2803 17.6086 28.7313 17.8563 28.5831C18.2905 28.3236 18.8341 28.3357 19.2563 28.6139C19.4994 28.7742 25.2104 32.6047 25.2104 38.2736C25.2105 41.9828 22.2002 45.0004 18.5 45.0004C28.2365 45.0004 36.1578 37.0599 36.1578 27.2997C36.1578 19.9297 32.9057 13.3239 28.0477 7.8326Z" fill="white"/>
</svg>
