<svg width="81" height="60" viewBox="0 0 81 60" fill="none" xmlns="http://www.w3.org/2000/svg">
<path d="M79.1477 26.615L79.1092 26.6095C79.094 26.6064 79.0799 26.5967 79.0653 26.5954L71.7038 25.628L71.7014 11.2206C71.7014 11.2109 71.7057 11.1987 71.7057 11.1987C71.7057 11.1736 71.7014 11.1596 71.7014 11.1431V11.1083C71.7002 11.0662 71.6904 11.0259 71.688 10.9832C71.6782 10.8318 71.666 10.6799 71.6355 10.5309C71.6281 10.498 71.6159 10.465 71.6092 10.4321C71.572 10.2679 71.5262 10.1049 71.4646 9.94378C71.4591 9.93157 71.4517 9.91876 71.4481 9.90655C69.1892 4.2089 52.0822 0.468658 36.0262 0.468658C18.7923 0.469879 0.34375 4.77714 0.34375 11.1883C0.34375 11.209 0.349243 11.2298 0.349243 11.2493L0.34375 36.3037C0.34375 42.2589 16.7543 47.4823 35.4623 47.4823L36.1929 47.4768C36.9479 47.4689 37.5546 46.8543 37.5546 46.0987V36.8262C39.0414 37.3212 41.2118 38.0487 43.0673 38.6731V50.0861C43.0673 50.4084 43.1802 50.7209 43.3853 50.9693L50.2768 59.2383C50.2902 59.2554 50.3122 59.2603 50.3262 59.2774C50.3414 59.2939 50.3482 59.3171 50.3634 59.3335C50.4422 59.4111 50.5398 59.4562 50.632 59.513C50.6845 59.5447 50.7272 59.5887 50.784 59.6131C50.9561 59.6894 51.1422 59.7346 51.3351 59.7346H51.3418C62.5235 59.6821 73.0142 58.3759 79.4022 56.2397C79.9631 56.0523 80.344 55.5243 80.344 54.9329V27.9809C80.3464 27.2888 79.8343 26.7047 79.1477 26.615ZM52.0242 30.0177L48.2864 25.6988L63.5513 27.3443L63.5611 27.3456H63.5629L66.6446 27.7496L71.4035 28.3752C65.9195 29.3591 59.1482 29.9444 52.0242 30.0177ZM68.9462 25.2655L65.1199 24.7625V19.4854C66.6098 18.8873 67.9056 17.9199 68.945 16.7913L68.9462 25.2655ZM33.622 19.7485C14.6303 19.4024 3.16236 13.7573 3.10438 11.209V11.1761C3.17213 8.38372 16.7928 3.22501 36.0232 3.22501C51.4871 3.22501 63.3188 6.56059 67.3972 9.30169C67.4454 9.33465 67.4991 9.36761 67.5461 9.40118C67.5925 9.43413 67.6328 9.46587 67.6767 9.49883C68.3536 9.99749 68.7741 10.4748 68.9023 10.9057C68.9145 10.9515 68.9188 10.9942 68.9255 11.0381C68.9322 11.0796 68.942 11.1205 68.9432 11.1596V11.2121C68.9212 12.2387 67.2153 15.7202 64.1098 16.9561L30.2675 9.89983L29.9782 9.83941C29.9441 9.83208 29.908 9.83758 29.8739 9.83331C29.4271 9.7741 28.9968 9.93585 28.6953 10.2593C28.6483 10.3088 28.5946 10.3515 28.5549 10.4095C28.3974 10.6396 28.3162 10.9057 28.3132 11.173C28.3107 11.4391 28.3852 11.7077 28.5366 11.9409L33.622 19.7485ZM34.7994 44.7235C15.0594 44.5978 3.10011 38.8483 3.10011 36.3037L3.10438 15.3521C8.50417 19.3627 21.144 22.4182 34.7994 22.5158V44.7235ZM37.5558 33.9813V21.1431C37.5558 21.1285 37.5503 21.1145 37.5491 21.098C37.5472 21.0485 37.5338 21.0015 37.5283 20.9521C37.5173 20.8776 37.5118 20.8013 37.4899 20.7287C37.4715 20.6695 37.4374 20.614 37.4111 20.5578C37.3849 20.5011 37.3672 20.4419 37.3342 20.39L32.6674 13.2244L62.3642 19.5037V24.4006L44.6926 22.0782C44.6731 22.0752 44.6542 22.0807 44.6346 22.0794L44.6261 22.0782C44.5834 22.0727 44.5425 22.0825 44.4998 22.0794C44.4332 22.077 44.3673 22.077 44.3014 22.0825C44.2251 22.0904 44.1537 22.1069 44.0804 22.1276C44.042 22.1386 44.0035 22.1374 43.9645 22.1508C43.9401 22.1606 43.9205 22.1783 43.8973 22.1893C43.8308 22.2186 43.7716 22.2558 43.71 22.2943C43.652 22.3315 43.597 22.3669 43.5458 22.4115C43.4945 22.4554 43.4506 22.5067 43.4066 22.5586C43.3608 22.6123 43.3181 22.6648 43.2809 22.724C43.2675 22.7478 43.2455 22.7642 43.2327 22.7874C43.2119 22.8277 43.2064 22.8704 43.1887 22.9101C43.1613 22.9736 43.1375 23.0371 43.1198 23.1048C43.1021 23.1762 43.0935 23.2452 43.0868 23.3166C43.0837 23.3624 43.0685 23.4021 43.0685 23.4448V35.7635C40.3988 34.8694 38.6843 34.3024 37.5558 33.9813ZM45.8248 37.6819V27.1441L49.96 31.9226V54.5502L45.8248 49.5874V37.6819ZM52.7163 56.9629V32.7631C62.4106 32.6196 71.453 31.535 77.5901 29.7973V53.9228C71.6709 55.7093 62.5552 56.8256 52.7163 56.9629Z" fill="white"/>
</svg>
