<svg width="50" height="50" viewBox="0 0 50 50" fill="none" xmlns="http://www.w3.org/2000/svg">
<path fill-rule="evenodd" clip-rule="evenodd" d="M7.3594 18.1125C6.19065 17.0427 5.39273 15.3073 5.23648 12.5042C5.23044 12.368 5.25247 12.232 5.30122 12.1047C5.34997 11.9775 5.42438 11.8615 5.51983 11.7642C5.61529 11.6669 5.72974 11.5903 5.85607 11.5391C5.98241 11.4879 6.11792 11.4633 6.25419 11.4667C7.99898 11.4979 9.33544 11.6167 10.3563 11.9177C10.7938 10.7834 11.6656 9.71356 12.9729 8.73544C13.1372 8.61285 13.3367 8.54663 13.5417 8.54663C13.7467 8.54663 13.9462 8.61285 14.1104 8.73544C15.4292 9.72085 16.3042 10.8011 16.7386 11.9459C17.7896 11.5917 19.1365 11.4896 20.8323 11.4646C20.9685 11.4616 21.1039 11.4866 21.23 11.5381C21.3561 11.5897 21.4703 11.6665 21.5654 11.764C21.6605 11.8615 21.7346 11.9775 21.7831 12.1049C21.8315 12.2322 21.8532 12.3681 21.8469 12.5042C21.6906 15.3073 20.8927 17.0427 19.724 18.1115C20.2948 18.5375 20.6261 19.25 20.5052 20.0219C20.2156 21.8542 19.7177 24.6761 18.9334 28.125H12.5V30.2084H18.4427C17.6604 33.4115 16.6511 37.0365 15.3615 40.8427C15.2416 41.2318 15.0002 41.5722 14.6727 41.814C14.3452 42.0559 13.9488 42.1864 13.5417 42.1864C13.1346 42.1864 12.7382 42.0559 12.4107 41.814C12.0831 41.5722 11.8417 41.2318 11.7219 40.8427C11.2156 39.349 10.7531 37.8823 10.3302 36.4584H12.5V34.375H9.73023C8.74481 30.8427 8.01148 27.6354 7.47919 25H11.4584V22.9167H7.07607C6.86773 21.7865 6.70419 20.8125 6.57919 20.0209C6.45836 19.25 6.78857 18.5375 7.3594 18.1125ZM14.7906 12.6844L15.5011 14.5594L17.4021 13.9198C17.9261 13.7438 18.6354 13.6386 19.6459 13.5865C19.3365 15.599 18.5917 16.449 17.9115 16.8886C16.9417 17.5156 15.5281 17.7063 13.5729 17.7084H13.5104C11.5552 17.7063 10.1417 17.5156 9.1719 16.8875C8.49273 16.449 7.74898 15.6 7.43856 13.5917C8.48127 13.649 9.22294 13.7552 9.76669 13.9156L11.6084 14.4594L12.3 12.6677C12.4979 12.1521 12.8823 11.574 13.5417 10.9656C14.2084 11.5802 14.5938 12.1646 14.7906 12.6844Z" fill="#A69DFF"/>
<path fill-rule="evenodd" clip-rule="evenodd" d="M35.1115 14.2782C33.0563 16.3334 32.8563 19.2021 34.0115 21.9032C39.0677 18.5938 44.7917 22.6875 44.7917 29.1667C44.7917 34.9198 39.6615 39.5834 33.3334 39.5834C27.0052 39.5834 21.875 34.9198 21.875 29.1667C21.875 23.1334 26.8386 19.1667 31.6042 21.3229C30.7907 18.4063 31.2115 15.2313 33.6386 12.8052L35.1115 14.2782ZM41.6354 31.5021C41.6713 31.3685 41.6802 31.2292 41.6616 31.0921C41.643 30.9551 41.5973 30.8231 41.5271 30.7039C41.457 30.5847 41.3638 30.4807 41.2531 30.3979C41.1423 30.3151 41.0162 30.2552 40.882 30.2216C40.7478 30.1881 40.6083 30.1816 40.4716 30.2025C40.3349 30.2235 40.2038 30.2714 40.0858 30.3436C39.9678 30.4158 39.8654 30.5107 39.7845 30.6229C39.7036 30.735 39.6458 30.8622 39.6146 30.9969C39.4163 31.8245 38.9929 32.581 38.3911 33.1828C37.7894 33.7845 37.0328 34.208 36.2052 34.4063C35.939 34.475 35.7107 34.6462 35.5702 34.8826C35.4297 35.1189 35.3883 35.4013 35.4551 35.668C35.522 35.9348 35.6915 36.1642 35.9269 36.3064C36.1622 36.4487 36.4443 36.492 36.7115 36.4271C37.905 36.1371 38.9957 35.5243 39.8642 34.6558C40.7326 33.7873 41.3454 32.6966 41.6354 31.5032V31.5021Z" fill="#A69DFF"/>
<path d="M35.4167 18.75C38.5417 18.75 40.625 16.6667 40.625 13.5417C37.5 13.5417 35.4167 15.625 35.4167 18.75Z" fill="#A69DFF"/>
</svg>
