<svg width="50" height="50" viewBox="0 0 50 50" fill="none" xmlns="http://www.w3.org/2000/svg">
<path d="M42.1875 25.293H24.7071V7.81249C24.7071 7.59764 24.5313 7.42186 24.3164 7.42186H23.0469C20.482 7.41766 17.9415 7.92067 15.5717 8.90195C13.2019 9.88323 11.0495 11.3234 9.23831 13.1396C7.45466 14.9178 6.03348 17.0255 5.05374 19.3457C4.03424 21.7521 3.51109 24.3396 3.51565 26.9531C3.51145 29.5181 4.01446 32.0585 4.99574 34.4283C5.97702 36.7982 7.4172 38.9506 9.23343 40.7617C11.0254 42.5537 13.1153 43.9648 15.4395 44.9463C17.8459 45.9658 20.4334 46.4889 23.0469 46.4844C25.6118 46.4886 28.1523 45.9856 30.5221 45.0043C32.8919 44.023 35.0443 42.5828 36.8555 40.7666C38.6475 38.9746 40.0586 36.8848 41.0401 34.5605C42.0596 32.1541 42.5827 29.5666 42.5782 26.9531V25.6836C42.5782 25.4687 42.4024 25.293 42.1875 25.293ZM34.458 38.4668C32.9461 39.967 31.1529 41.1541 29.1814 41.9601C27.2099 42.7662 25.0987 43.1753 22.9688 43.1641C18.667 43.1445 14.6241 41.4599 11.5821 38.418C8.52054 35.3564 6.83597 31.2842 6.83597 26.9531C6.83597 22.6221 8.52054 18.5498 11.5821 15.4883C14.2481 12.8223 17.6807 11.1963 21.3867 10.8252V28.6133H39.1748C38.7989 32.3389 37.1582 35.791 34.458 38.4668ZM46.4844 22.5781L46.3575 21.2012C45.9424 16.7041 43.9453 12.4609 40.7325 9.2578C37.5173 6.0488 33.2829 4.06281 28.7598 3.64257L27.378 3.51561C27.1485 3.49608 26.9532 3.67186 26.9532 3.90135V22.6562C26.9532 22.8711 27.1289 23.0469 27.3438 23.0469L46.0938 22.998C46.3233 22.998 46.5039 22.8027 46.4844 22.5781ZM30.2637 19.7363V7.20702C33.3396 7.85081 36.1622 9.37409 38.3887 11.5918C40.6202 13.8183 42.1485 16.6504 42.7832 19.7021L30.2637 19.7363Z" fill="#a69dff"/>
</svg>
