<svg width="81" height="80" viewBox="0 0 81 80" fill="none" xmlns="http://www.w3.org/2000/svg">
<path d="M46.75 30C47.7389 30 48.7056 29.7068 49.5279 29.1574C50.3501 28.6079 50.991 27.827 51.3694 26.9134C51.7478 25.9998 51.8469 24.9945 51.6539 24.0246C51.461 23.0546 50.9848 22.1637 50.2855 21.4645C49.5863 20.7652 48.6954 20.289 47.7255 20.0961C46.7556 19.9031 45.7502 20.0022 44.8366 20.3806C43.923 20.759 43.1421 21.3999 42.5927 22.2222C42.0432 23.0444 41.75 24.0111 41.75 25C41.7515 26.3256 42.2788 27.5965 43.2161 28.5339C44.1535 29.4713 45.4244 29.9985 46.75 30ZM46.75 22.5C47.2445 22.5 47.7278 22.6466 48.1389 22.9213C48.5501 23.196 48.8705 23.5865 49.0597 24.0433C49.2489 24.5001 49.2984 25.0028 49.202 25.4877C49.1055 25.9727 48.8674 26.4181 48.5178 26.7678C48.1681 27.1174 47.7227 27.3555 47.2377 27.452C46.7528 27.5484 46.2501 27.4989 45.7933 27.3097C45.3365 27.1205 44.946 26.8001 44.6713 26.3889C44.3966 25.9778 44.25 25.4945 44.25 25C44.2508 24.3372 44.5144 23.7018 44.9831 23.2331C45.4518 22.7644 46.0872 22.5008 46.75 22.5Z" fill="white"/>
<path d="M74.5888 54.5145C72.8281 53.0252 69.6062 51.25 64.25 51.25C63.4104 51.2463 62.5727 51.3288 61.75 51.4961V21.25C61.7467 18.2673 60.5603 15.4078 58.4512 13.2987C56.3422 11.1897 53.4827 10.0033 50.5 10H40.5C36.9321 9.99829 33.4632 11.1736 30.6311 13.3437C29.6692 12.3285 28.6216 11.398 27.5 10.5625C25.103 8.77081 22.4567 7.3395 19.6453 6.31406C19.3887 6.22859 19.1113 6.22859 18.8547 6.31406C16.0433 7.3395 13.397 8.77081 11 10.5625C5.76641 14.4878 3 19.4802 3 25C3 36.7381 6.29906 45.5781 13.0859 52.0252C13.4531 52.3755 13.7456 52.7965 13.9456 53.2629C14.1457 53.7292 14.2492 54.2313 14.25 54.7387V57.2433L10.6009 65.7577C10.506 65.9792 10.4771 66.2234 10.5177 66.4609C10.5584 66.6985 10.6668 66.9192 10.83 67.0966C10.9932 67.2739 11.2042 67.4003 11.4375 67.4605C11.6709 67.5207 11.9167 67.5122 12.1453 67.4359L19.25 65.0677L26.3547 67.4359C26.5833 67.5122 26.8291 67.5207 27.0625 67.4605C27.2958 67.4003 27.5068 67.2739 27.67 67.0966C27.8332 66.9192 27.9416 66.6985 27.9823 66.4609C28.0229 66.2234 27.994 65.9792 27.8991 65.7577L24.25 57.2433V54.7387C24.2508 54.2313 24.3543 53.7292 24.5544 53.2628C24.7545 52.7964 25.0469 52.3753 25.4141 52.025C26.5442 50.9521 27.5904 49.7943 28.5436 48.5616L30.652 50.6698C31.3525 51.3744 31.747 52.3268 31.75 53.3203V53.75C31.7533 56.7327 32.9397 59.5922 35.0487 61.7012C37.1578 63.8103 40.0173 64.9966 43 65H43.0586C43.4648 69.3137 45.9505 71.4664 48.0659 72.5242C49.6059 73.2758 51.2873 73.6935 53 73.75C54.7127 73.6935 56.3941 73.2758 57.9341 72.5242C58.8892 72.0528 59.7564 71.421 60.4978 70.6562C61.7065 71.0629 62.9748 71.2636 64.25 71.25C69.6062 71.25 72.8281 69.4748 74.5888 67.9855C76.7566 66.1511 78 63.6961 78 61.25C78 58.8039 76.7566 56.3489 74.5888 54.5145ZM40.5 12.5H50.5C52.8198 12.5026 55.0439 13.4253 56.6843 15.0657C58.3247 16.7061 59.2474 18.9302 59.25 21.25V52.3806C59.1417 52.4378 59.0347 52.4967 58.9294 52.5583C58.2786 51.9336 57.5453 51.401 56.75 50.9753V21.25C56.7481 19.593 56.0891 18.0043 54.9174 16.8326C53.7457 15.6609 52.157 15.0019 50.5 15H40.5C37.9894 15.0038 35.5517 15.8444 33.5723 17.3887C33.1754 16.6508 32.7274 15.9414 32.2317 15.2658C34.6137 13.4692 37.5165 12.4982 40.5 12.5ZM37.4198 46.402L32.848 41.8302C32.7569 41.7382 32.6707 41.6417 32.5897 41.5408C34.5384 36.8169 35.5 31.3306 35.5 25C35.5025 23.2208 35.2053 21.4538 34.6209 19.7733C36.2318 18.3141 38.3265 17.5041 40.5 17.5H50.5C51.4942 17.5012 52.4474 17.8966 53.1504 18.5996C53.8534 19.3026 54.2488 20.2558 54.25 21.25V50.1094C53.8372 50.0377 53.419 50.0011 53 50C50.5539 50 48.0989 51.2434 46.2645 53.4112C45.2583 54.6226 44.4831 56.0085 43.9777 57.5H43C42.0058 57.4988 41.0526 57.1034 40.3496 56.4004C39.6466 55.6974 39.2512 54.7442 39.25 53.75V50.8203C39.2522 49.9994 39.0916 49.1862 38.7775 48.4278C38.4633 47.6695 38.0019 46.9809 37.4198 46.402ZM12.4464 12.6028C14.5362 11.0476 16.8247 9.77893 19.2509 8.83062C21.6565 9.76914 23.9261 11.0242 26 12.5625C30.2344 15.7384 32.565 19.497 32.9439 23.75H5.55609C5.93344 19.5156 8.24594 15.7708 12.4464 12.6028ZM21.75 26.25H26.75V28.75C26.75 29.413 26.4866 30.0489 26.0178 30.5178C25.5489 30.9866 24.913 31.25 24.25 31.25C23.587 31.25 22.9511 30.9866 22.4822 30.5178C22.0134 30.0489 21.75 29.413 21.75 28.75V26.25ZM5.51422 26.25H11.75V46.8045C10.1058 44.6303 8.79002 42.2264 7.84469 39.6697C6.38453 35.7744 5.62016 31.3725 5.51422 26.25ZM19.6453 62.5641C19.3887 62.4786 19.1113 62.4786 18.8547 62.5641L13.9953 64.1839L16.3244 58.75H22.1756L24.5045 64.1839L19.6453 62.5641ZM23.6922 50.2123C23.0796 50.7966 22.5917 51.4989 22.2579 52.2768C21.9242 53.0548 21.7514 53.8922 21.75 54.7387V56.25H16.75V54.7387C16.7486 53.8922 16.5758 53.0548 16.242 52.2769C15.9082 51.499 15.4203 50.7967 14.8077 50.2125C14.6186 50.0328 14.4327 49.8514 14.25 49.6683V26.25H19.25V28.75C19.25 30.0761 19.7768 31.3478 20.7145 32.2855C21.6521 33.2232 22.9239 33.75 24.25 33.75C25.5761 33.75 26.8479 33.2232 27.7855 32.2855C28.7232 31.3478 29.25 30.0761 29.25 28.75V26.25H32.9858C32.8798 31.3725 32.1155 35.7744 30.6553 39.6697C29.182 43.6757 26.7984 47.2847 23.6923 50.2123H23.6922ZM34.25 53.75V53.3203C34.2522 52.4994 34.0916 51.6862 33.7775 50.9278C33.4633 50.1695 33.0019 49.4809 32.4198 48.902L30.0081 46.4903C30.53 45.6809 31.0144 44.8437 31.4612 43.9787L35.6523 48.1698C36.3527 48.8745 36.7471 49.8268 36.75 50.8203V53.75C36.7519 55.407 37.4109 56.9957 38.5826 58.1674C39.7543 59.3391 41.343 59.9981 43 60H43.3234C43.1747 60.8264 43.0782 61.6614 43.0345 62.5H43C40.6802 62.4974 38.4561 61.5747 36.8157 59.9343C35.1753 58.2939 34.2526 56.0698 34.25 53.75ZM56.8859 70.2528C55.6739 70.8515 54.3505 71.1911 53 71.25C52.6937 71.25 45.5 71.1647 45.5 63.75C45.5 55.5542 50.1003 52.5 53 52.5C55.8997 52.5 60.5 55.5542 60.5 63.75C60.5 66.8359 59.2841 69.0238 56.8859 70.2528ZM64.25 68.75C63.4934 68.7552 62.7388 68.6702 62.0023 68.4967C62.6108 67.2467 63 65.6887 63 63.75C63 59.3659 61.8106 56.412 60.5625 54.5189C61.5959 54.0087 62.8305 53.75 64.25 53.75C72.4458 53.75 75.5 58.3503 75.5 61.25C75.5 64.1497 72.4458 68.75 64.25 68.75Z" fill="white"/>
<path d="M18 20C18.7417 20 19.4667 19.7801 20.0834 19.368C20.7001 18.956 21.1807 18.3703 21.4645 17.6851C21.7484 16.9998 21.8226 16.2458 21.6779 15.5184C21.5332 14.791 21.1761 14.1228 20.6516 13.5984C20.1272 13.0739 19.459 12.7168 18.7316 12.5721C18.0042 12.4274 17.2502 12.5016 16.5649 12.7855C15.8797 13.0693 15.294 13.5499 14.882 14.1666C14.4699 14.7833 14.25 15.5083 14.25 16.25C14.2512 17.2442 14.6466 18.1974 15.3496 18.9004C16.0526 19.6034 17.0058 19.9988 18 20ZM18 15C18.2472 15 18.4889 15.0733 18.6945 15.2107C18.9 15.348 19.0602 15.5432 19.1548 15.7716C19.2495 16.0001 19.2742 16.2514 19.226 16.4939C19.1777 16.7363 19.0587 16.9591 18.8839 17.1339C18.7091 17.3087 18.4863 17.4278 18.2439 17.476C18.0014 17.5242 17.7501 17.4995 17.5216 17.4048C17.2932 17.3102 17.098 17.15 16.9607 16.9445C16.8233 16.7389 16.75 16.4972 16.75 16.25C16.7504 15.9186 16.8822 15.6009 17.1165 15.3665C17.3509 15.1322 17.6686 15.0004 18 15Z" fill="white"/>
</svg>
